<?xml version="1.0" encoding="UTF-8" standalone="no"?>
<svg
   width="64"
   height="64"
   version="1"
   id="svg1239"
   sodipodi:docname="awesome-new-comfort-circle.svg"
   inkscape:version="1.2.2 (732a01da63, 2022-12-09)"
   xml:space="preserve"
   inkscape:export-filename="..\awesome-new-comfort-circle\reboot.png"
   inkscape:export-xdpi="96"
   inkscape:export-ydpi="96"
   xmlns:inkscape="http://www.inkscape.org/namespaces/inkscape"
   xmlns:sodipodi="http://sodipodi.sourceforge.net/DTD/sodipodi-0.dtd"
   xmlns:xlink="http://www.w3.org/1999/xlink"
   xmlns="http://www.w3.org/2000/svg"
   xmlns:svg="http://www.w3.org/2000/svg"><defs
     id="defs1243"><rect
       x="-57.686158"
       y="-6.5881127"
       width="31.173021"
       height="26.673822"
       id="rect374" /></defs><sodipodi:namedview
     id="namedview1241"
     pagecolor="#ffffff"
     bordercolor="#000000"
     borderopacity="0.25"
     inkscape:showpageshadow="2"
     inkscape:pageopacity="0.0"
     inkscape:pagecheckerboard="0"
     inkscape:deskcolor="#d1d1d1"
     showgrid="true"
     inkscape:window-width="1920"
     inkscape:window-height="1027"
     inkscape:window-x="1912"
     inkscape:window-y="-8"
     inkscape:window-maximized="1"
     inkscape:current-layer="layer7"><inkscape:grid
       type="xygrid"
       id="grid536" /></sodipodi:namedview><g
     inkscape:groupmode="layer"
     id="layer3"
     inkscape:label="square"
     style="display:none"><rect
       style="display:inline;fill:#0f56d9;fill-opacity:1;stroke:#ececee;stroke-width:2;stroke-dasharray:none;stroke-opacity:1"
       width="56"
       height="56"
       x="4"
       y="4.0000019"
       rx="2.8"
       ry="2.8"
       id="rect4341" /></g><g
     inkscape:groupmode="layer"
     id="layer2"
     inkscape:label="circle"
     style="display:inline"><rect
       style="display:inline;fill:#0f56d9;fill-opacity:1"
       width="56"
       height="56"
       x="4"
       y="4"
       rx="28"
       ry="28"
       id="rect1229" /></g><g
     inkscape:groupmode="layer"
     id="layer1"
     inkscape:label="lock"
     style="display:none"><image
       width="64"
       height="64"
       preserveAspectRatio="none"
       xlink:href="../awesome/lock.png"
       id="image440"
       x="-0.10875447"
       y="0.10875447"
       style="display:none" /><rect
       style="display:inline;fill:#ececee;fill-opacity:1;stroke:none;stroke-width:3.77953;stroke-linecap:square;stroke-miterlimit:3;stroke-dasharray:none;paint-order:markers fill stroke"
       id="rect590-2"
       width="27.999996"
       height="4"
       x="18.000002"
       y="35" /><rect
       style="display:inline;fill:#ececee;fill-opacity:1;stroke:none;stroke-width:3.77953;stroke-linecap:square;stroke-miterlimit:3;stroke-dasharray:none;paint-order:markers fill stroke"
       id="rect590-0"
       width="27.999996"
       height="4"
       x="18.000002"
       y="40" /><path
       style="display:inline;fill:#ececee;fill-opacity:1;stroke:none;stroke-width:3.77953;stroke-linecap:square;stroke-miterlimit:3;stroke-dasharray:none;paint-order:markers fill stroke"
       d="m 18,34 v -1 c 0,0 0,-1 1,-2 1,-1 2,-1 2,-1 h 22 c 0,0 1,0 2,1 1,1 1,2 1,2 v 1 z"
       id="path2532"
       sodipodi:nodetypes="cczccsccc" /><path
       style="display:inline;fill:#ececee;fill-opacity:1;stroke:none;stroke-width:3.77953;stroke-linecap:square;stroke-miterlimit:3;stroke-dasharray:none;paint-order:markers fill stroke"
       d="m 18,45 v 1 c 0,0 0,1 1,2 1,1 2,1 2,1 h 22 c 0,0 1,0 2,-1 1,-1 1,-2 1,-2 v -1 z"
       id="path2532-7"
       sodipodi:nodetypes="cczccsccc" /><path
       style="display:inline;fill:none;fill-opacity:1;stroke:#ececee;stroke-width:4;stroke-linecap:square;stroke-miterlimit:3;stroke-dasharray:none;stroke-opacity:1;paint-order:markers fill stroke"
       d="m 24,27 v -5 c 0,-10 16,-10 16,0 v 5"
       id="path2556"
       sodipodi:nodetypes="cccc" /></g><g
     inkscape:groupmode="layer"
     id="layer4"
     inkscape:label="logout"
     style="display:none"><image
       width="64"
       height="64"
       preserveAspectRatio="none"
       xlink:href="../awesome/logout.png"
       id="image3434"
       x="0"
       y="0"
       style="display:none" /><path
       style="fill:none;fill-opacity:1;stroke:#ececee;stroke-width:4;stroke-linecap:square;stroke-miterlimit:3;stroke-dasharray:none;stroke-opacity:1;paint-order:markers fill stroke"
       d="M 28.5,17 H 22 c -3,0 -6,2 -6,6 v 16 c 0,4 2,6 6,6 h 7"
       id="path3502"
       sodipodi:nodetypes="cccccc" /><path
       style="fill:#ececee;fill-opacity:1;stroke:none;stroke-width:0;stroke-linecap:square;stroke-miterlimit:3;stroke-dasharray:none;stroke-opacity:1;paint-order:markers fill stroke"
       d="M 25,25 H 37 V 16 L 53,31 37,46 V 37 H 25 V 25"
       id="path3504" /></g><g
     inkscape:groupmode="layer"
     id="layer5"
     inkscape:label="reboot"
     style="display:inline"><image
       width="64"
       height="64"
       preserveAspectRatio="none"
       xlink:href="../awesome/reboot.png"
       id="image4227"
       x="0"
       y="0"
       style="display:none" /><path
       style="display:none;fill:#424242;fill-opacity:1;stroke-width:1"
       d="m 17.04536,21.473611 a 2.8707544,2.8708772 37 1 0 4.584915,3.454979 c 2.275302,-3.019427 5.753217,-4.88911 9.526803,-5.119991 3.092557,-0.189223 6.112519,0.755294 8.551153,2.593311 l -3.468479,4.602826 7.176151,0.0163 7.17615,0.0163 L 48.598375,20.143667 46.604694,13.25 43.158148,17.82372 C 39.635745,15.17031 35.269789,13.806095 30.806229,14.079192 25.359817,14.412428 20.329301,17.11568 17.04536,21.47362 Z M 13.25,38.434429 l 1.993678,6.893669 1.99368,6.893667 3.446547,-4.57372 c 3.522403,2.653409 7.888358,4.017625 12.351918,3.744527 5.446412,-0.333235 10.476928,-3.036487 13.760869,-7.394427 a 2.8707544,2.8708772 37 1 0 -4.584914,-3.454978 c -2.275302,3.019426 -5.753217,4.889109 -9.526803,5.119991 -3.092557,0.189222 -6.11252,-0.755295 -8.551154,-2.593311 l 3.46848,-4.602827 -7.176151,-0.0163 z"
       id="path4072" /><circle
       style="fill:none;fill-opacity:1;stroke:#ececee;stroke-width:6;stroke-linecap:butt;stroke-linejoin:round;stroke-miterlimit:2;stroke-dasharray:none;stroke-opacity:1;paint-order:markers fill stroke"
       id="path6121"
       cx="32"
       cy="32"
       r="16" /><path
       style="fill:#ececee;fill-opacity:1;stroke:none;stroke-width:6;stroke-linecap:butt;stroke-linejoin:round;stroke-miterlimit:2;stroke-dasharray:none;stroke-opacity:0.514085;paint-order:markers fill stroke"
       d="m 36,26 v 0 H 51 L 47,12 36,26"
       id="path6810" /><path
       style="display:inline;fill:#ececee;fill-opacity:1;stroke:none;stroke-width:6;stroke-linecap:butt;stroke-linejoin:round;stroke-miterlimit:2;stroke-dasharray:none;stroke-opacity:0.514085;paint-order:markers fill stroke"
       d="m 28,37 v 0 H 13 l 4,14 11,-14"
       id="path6810-4" /><rect
       style="fill:#0f56d9;fill-opacity:1;stroke:none;stroke-width:0;stroke-linecap:butt;stroke-linejoin:round;stroke-miterlimit:2;stroke-dasharray:none;stroke-opacity:0.514085;paint-order:markers fill stroke"
       id="rect7081"
       width="24"
       height="5"
       x="9"
       y="32"
       rx="1.4608696"
       ry="1.2727273" /><rect
       style="display:inline;fill:#0f56d9;fill-opacity:1;stroke:none;stroke-width:0;stroke-linecap:butt;stroke-linejoin:round;stroke-miterlimit:2;stroke-dasharray:none;stroke-opacity:0.514085;paint-order:markers fill stroke"
       id="rect7081-8"
       width="24"
       height="5"
       x="32"
       y="26"
       rx="1.4608696"
       ry="1.2727273" /></g><g
     inkscape:groupmode="layer"
     id="layer6"
     inkscape:label="refresh"
     style="display:none"><image
       width="64"
       height="64"
       preserveAspectRatio="none"
       xlink:href="../awesome/refresh.png"
       id="image4454"
       x="0"
       y="0"
       style="display:none" /><path
       inkscape:connector-curvature="0"
       d="m 44.557023,10.015754 c -13.204796,0.818889 -24.70297,4.856203 -30.595077,10.750299 -3.584831,3.589777 -4.7766132,7.674702 -3.413212,11.702491 0.133415,0.390402 0.162063,0.637971 0.104725,0.780802 -0.152567,0.418966 -0.371841,1.904391 -0.371841,2.561408 0,1.809174 0.715062,4.246796 1.725673,5.856008 l 0.209749,0.333268 0.171617,-0.876021 c 0.381366,-1.837739 1.420596,-4.26584 2.612365,-6.065491 5.501201,-8.322194 18.143459,-14.816174 33.083468,-17.006226 2.69815,-0.390399 4.36663,-0.53323 8.43772,-0.72367 L 58,17.252442 56.66522,17.090568 c -7.49385,-0.952195 -16.904032,-0.409443 -24.169051,1.399728 -5.558411,1.380686 -10.811732,3.48504 -13.948447,5.579872 -0.295564,0.199961 -0.543443,0.342791 -0.543443,0.323748 0,-0.02857 0.486233,-0.485622 1.077347,-1.00933 3.136729,-2.828022 7.436621,-5.465608 11.993961,-7.379521 0.705522,-0.295182 1.363358,-0.571318 1.468253,-0.618928 0.400432,-0.190439 1.964026,-0.752234 3.384623,-1.218811 5.320043,-1.752042 10.697311,-2.837545 16.398707,-3.30412 0.96295,-0.07618 2.10707,-0.142823 2.5361,-0.142823 0.4195,0 1.23943,-0.02857 1.81148,-0.06665 1.22037,-0.08569 1.21083,-0.08569 -1.86869,-0.409444 -1.60172,-0.171397 -2.65049,-0.209485 -5.81583,-0.238049 -2.126116,-0.0095 -4.118748,-0.0095 -4.433377,0.0095 z"
       id="path6035"
       style="display:inline;fill:#ececed;fill-opacity:1;stroke:none;stroke-width:0.006746" /><circle
       style="display:inline;opacity:0.97;fill:none;fill-opacity:1;stroke:#e8e8e9;stroke-width:4;stroke-linecap:butt;stroke-linejoin:round;stroke-miterlimit:2;stroke-dasharray:none;stroke-opacity:1;paint-order:markers fill stroke"
       id="path6121-2"
       cx="37.5"
       cy="40.47826"
       r="10.782609" /><path
       style="display:inline;opacity:0.97;fill:#ececee;fill-opacity:1;stroke:none;stroke-width:6;stroke-linecap:butt;stroke-linejoin:round;stroke-miterlimit:2;stroke-dasharray:none;stroke-opacity:0.514085;paint-order:markers fill stroke"
       d="m 40.19565,36.434782 v 0 H 50.304346 L 47.608693,27 40.19565,36.434782"
       id="path6810-43" /><path
       style="display:inline;opacity:0.97;fill:#ececee;fill-opacity:1;stroke:none;stroke-width:6;stroke-linecap:butt;stroke-linejoin:round;stroke-miterlimit:2;stroke-dasharray:none;stroke-opacity:0.514085;paint-order:markers fill stroke"
       d="m 34.804346,43.847826 v 0 H 24.69565 l 2.695652,9.434782 7.413044,-9.434782"
       id="path6810-4-2" /><rect
       style="display:inline;opacity:0.97;fill:#0f56d9;fill-opacity:1;stroke:none;stroke-width:0;stroke-linecap:butt;stroke-linejoin:round;stroke-miterlimit:2;stroke-dasharray:none;stroke-opacity:0.514085;paint-order:markers fill stroke"
       id="rect7081-6"
       width="16"
       height="4"
       x="37"
       y="36"
       rx="0.97391301"
       ry="1.0181818" /><rect
       style="opacity:0.97;fill:#0f56d9;fill-opacity:1;stroke:none;stroke-width:4;stroke-linecap:butt;stroke-linejoin:round;stroke-miterlimit:2;stroke-dasharray:none;stroke-opacity:1;paint-order:markers fill stroke"
       id="rect7357"
       width="15.000001"
       height="4"
       x="22"
       y="40"
       rx="2.1772575"
       ry="1.5095651" /></g><g
     inkscape:groupmode="layer"
     id="layer7"
     inkscape:label="shutdown"
     style="display:none"><image
       width="64"
       height="64"
       preserveAspectRatio="none"
       xlink:href="../awesome/shutdown.png"
       id="image4778"
       x="0"
       y="0"
       style="display:none" /><path
       style="fill:#ececee;fill-opacity:1;stroke-width:1"
       d="m 31.960241,12.000285 a 2.7147061,2.6575886 0 0 0 -2.674673,2.692672 v 15.945096 a 2.7147061,2.6575886 0 1 0 5.428869,0 V 14.692957 a 2.7147061,2.6575886 0 0 0 -2.754196,-2.692672 z m -9.110852,5.335866 a 2.7148712,2.6693563 0 0 0 -1.447345,0.471348 c -6.914824,4.568667 -9.999855,13.066859 -7.591935,20.908569 2.407922,7.841713 9.758288,13.240786 18.089163,13.283675 8.330875,0.0429 15.740999,-5.279689 18.232307,-13.096177 2.491306,-7.816488 -0.503482,-16.344476 -7.369266,-20.98409 a 2.7148712,2.6693563 0 1 0 -3.074947,4.395772 c 4.920244,3.3249 7.049869,9.390443 5.26452,14.991986 -1.78535,5.601546 -7.053284,9.384775 -13.023454,9.35404 -5.970172,-0.03074 -11.194481,-3.867231 -12.920075,-9.486852 -1.725591,-5.619621 0.465534,-11.663243 5.420919,-14.937298 a 2.7148712,2.6693563 0 0 0 -1.579887,-4.900973 z"
       id="path4622" /></g><g
     inkscape:groupmode="layer"
     id="layer8"
     inkscape:label="suspend"
     style="display:none"><image
       width="64"
       height="64"
       preserveAspectRatio="none"
       xlink:href="../awesome/suspend.png"
       id="image4861"
       x="0"
       y="0"
       style="display:none" /><path
       id="path4865"
       style="display:inline;fill:none;fill-opacity:1;stroke:#424242;stroke-width:4;stroke-linecap:butt;stroke-linejoin:round;stroke-miterlimit:2;stroke-dasharray:none;stroke-opacity:1;paint-order:markers fill stroke"
       d="M 30.947266,14.516038 A 18,18 0 0 0 15,32.369554 a 18,18 0 0 0 18,18 A 18,18 0 0 0 48.052734,42.22307 18,18 0 0 1 46,42.369554 18,18 0 0 1 43.4375,42.18596 18,18 0 0 1 40.929688,41.641038 18,18 0 0 1 38.523438,40.742601 18,18 0 0 1 36.267578,39.512132 18,18 0 0 1 34.212891,37.97307 18,18 0 0 1 32.396484,36.156663 18,18 0 0 1 30.857422,34.101976 18,18 0 0 1 29.626953,31.846116 18,18 0 0 1 28.728516,29.439866 18,18 0 0 1 28.183594,26.932054 18,18 0 0 1 28,24.369554 a 18,18 0 0 1 0.183594,-2.5625 18,18 0 0 1 0.544922,-2.507812 18,18 0 0 1 0.898437,-2.40625 18,18 0 0 1 1.230469,-2.25586 18,18 0 0 1 0.08984,-0.121094 z" /></g></svg>
